<?xml version="1.0" encoding="utf-8"?>
<!-- Generator: Adobe Illustrator 21.0.0, SVG Export Plug-In . SVG Version: 6.00 Build 0)  -->
<svg version="1.1" id="Layer_1" xmlns="http://www.w3.org/2000/svg" xmlns:xlink="http://www.w3.org/1999/xlink" x="0px" y="0px"
	 viewBox="0 0 64 64" style="enable-background:new 0 0 64 64;" xml:space="preserve">
<style type="text/css">
	.st0{fill:#FFFFFF;}
	.st1{opacity:0.2;}
	.st2{fill:#231F20;}
	.st3{fill:#969696;}
</style>
<g id="Layer_1_1_">
	<g>
		<circle class="st0" cx="32" cy="32" r="32"/>
	</g>
	<g>
		<path d="M32,52.3c-1.3,0-2.4-1.1-2.4-2.4V12c0-1.3,1.1-2.4,2.4-2.4l0,0c1.3,0,2.4,1.1,2.4,2.4V50C34.4,51.3,33.3,52.3,32,52.3
			L32,52.3z"/>
	</g>
	<g>
		<path d="M48.6,52.3c-1.3,0-2.4-1.1-2.4-2.4V12c0-1.3,1.1-2.4,2.4-2.4l0,0c1.3,0,2.4,1.1,2.4,2.4V50C51,51.3,49.9,52.3,48.6,52.3
			L48.6,52.3z"/>
	</g>
	<g>
		<path d="M15.4,52.3c-1.3,0-2.4-1.1-2.4-2.4V12c0-1.3,1.1-2.4,2.4-2.4l0,0c1.3,0,2.4,1.1,2.4,2.4V50C17.8,51.3,16.7,52.3,15.4,52.3
			L15.4,52.3z"/>
	</g>
	<g class="st1">
		<circle class="st2" cx="48.5" cy="36" r="6"/>
	</g>
	<g class="st1">
		<circle class="st2" cx="32" cy="22.9" r="5.7"/>
	</g>
	<g class="st1">
		<circle class="st2" cx="15.4" cy="43.2" r="6"/>
	</g>
	<g>
		<circle class="st3" cx="48.5" cy="33.1" r="6"/>
	</g>
	<g>
		<circle class="st3" cx="32" cy="20.1" r="5.7"/>
	</g>
	<g>
		<circle class="st3" cx="15.4" cy="40.2" r="6"/>
	</g>
</g>
<g id="Layer_2">
</g>
</svg>
